<mxfile host="app.diagrams.net" agent="Mozilla/5.0 (Windows NT 10.0; Win64; x64) AppleWebKit/537.36 (KHTML, like Gecko) Chrome/129.0.0.0 Safari/537.36 Edg/129.0.0.0" version="24.7.12">
  <diagram name="Page-1" id="YlIaeFjSZ_ujcxFhdNcF">
    <mxGraphModel dx="1002" dy="565" grid="1" gridSize="10" guides="1" tooltips="1" connect="1" arrows="1" fold="1" page="1" pageScale="1" pageWidth="827" pageHeight="1169" math="0" shadow="0">
      <root>
        <mxCell id="0" />
        <mxCell id="1" parent="0" />
        <mxCell id="WTU8kCG2yNiOu3vc5kU5-4" style="edgeStyle=orthogonalEdgeStyle;rounded=0;orthogonalLoop=1;jettySize=auto;html=1;" edge="1" parent="1" source="WTU8kCG2yNiOu3vc5kU5-1" target="WTU8kCG2yNiOu3vc5kU5-2">
          <mxGeometry relative="1" as="geometry" />
        </mxCell>
        <mxCell id="WTU8kCG2yNiOu3vc5kU5-5" value="Gửi yêu cầu huỷ hợp đồng" style="edgeLabel;html=1;align=center;verticalAlign=middle;resizable=0;points=[];" vertex="1" connectable="0" parent="WTU8kCG2yNiOu3vc5kU5-4">
          <mxGeometry x="-0.1733" y="2" relative="1" as="geometry">
            <mxPoint as="offset" />
          </mxGeometry>
        </mxCell>
        <mxCell id="WTU8kCG2yNiOu3vc5kU5-1" value="Renter" style="shape=umlActor;verticalLabelPosition=bottom;verticalAlign=top;html=1;outlineConnect=0;" vertex="1" parent="1">
          <mxGeometry x="40" y="280" width="30" height="60" as="geometry" />
        </mxCell>
        <mxCell id="WTU8kCG2yNiOu3vc5kU5-8" style="rounded=0;orthogonalLoop=1;jettySize=auto;html=1;entryX=0;entryY=1;entryDx=0;entryDy=0;" edge="1" parent="1" source="WTU8kCG2yNiOu3vc5kU5-2" target="WTU8kCG2yNiOu3vc5kU5-7">
          <mxGeometry relative="1" as="geometry" />
        </mxCell>
        <mxCell id="WTU8kCG2yNiOu3vc5kU5-9" value="Đồng ý yêu cầu huỷ" style="edgeLabel;html=1;align=center;verticalAlign=middle;resizable=0;points=[];" vertex="1" connectable="0" parent="WTU8kCG2yNiOu3vc5kU5-8">
          <mxGeometry x="0.3817" y="3" relative="1" as="geometry">
            <mxPoint y="15" as="offset" />
          </mxGeometry>
        </mxCell>
        <mxCell id="WTU8kCG2yNiOu3vc5kU5-2" value="Owner" style="shape=umlActor;verticalLabelPosition=bottom;verticalAlign=top;html=1;outlineConnect=0;" vertex="1" parent="1">
          <mxGeometry x="280" y="280" width="30" height="60" as="geometry" />
        </mxCell>
        <mxCell id="WTU8kCG2yNiOu3vc5kU5-7" value="Trả cọc, huỷ hợp đồng khi tới ngày" style="rounded=0;whiteSpace=wrap;html=1;" vertex="1" parent="1">
          <mxGeometry x="400" y="150" width="120" height="60" as="geometry" />
        </mxCell>
        <mxCell id="WTU8kCG2yNiOu3vc5kU5-10" style="edgeStyle=orthogonalEdgeStyle;rounded=0;orthogonalLoop=1;jettySize=auto;html=1;" edge="1" parent="1" source="WTU8kCG2yNiOu3vc5kU5-12" target="WTU8kCG2yNiOu3vc5kU5-13">
          <mxGeometry relative="1" as="geometry" />
        </mxCell>
        <mxCell id="WTU8kCG2yNiOu3vc5kU5-11" value="Gửi yêu cầu huỷ hợp đồng" style="edgeLabel;html=1;align=center;verticalAlign=middle;resizable=0;points=[];" vertex="1" connectable="0" parent="WTU8kCG2yNiOu3vc5kU5-10">
          <mxGeometry x="-0.1733" y="2" relative="1" as="geometry">
            <mxPoint as="offset" />
          </mxGeometry>
        </mxCell>
        <mxCell id="WTU8kCG2yNiOu3vc5kU5-12" value="Owner" style="shape=umlActor;verticalLabelPosition=bottom;verticalAlign=top;html=1;outlineConnect=0;" vertex="1" parent="1">
          <mxGeometry x="40" width="30" height="60" as="geometry" />
        </mxCell>
        <mxCell id="WTU8kCG2yNiOu3vc5kU5-14" style="rounded=0;orthogonalLoop=1;jettySize=auto;html=1;entryX=0;entryY=0;entryDx=0;entryDy=0;" edge="1" parent="1" source="WTU8kCG2yNiOu3vc5kU5-13" target="WTU8kCG2yNiOu3vc5kU5-7">
          <mxGeometry relative="1" as="geometry" />
        </mxCell>
        <mxCell id="WTU8kCG2yNiOu3vc5kU5-15" value="Đồng ý yêu cầu huỷ" style="edgeLabel;html=1;align=center;verticalAlign=middle;resizable=0;points=[];" vertex="1" connectable="0" parent="WTU8kCG2yNiOu3vc5kU5-14">
          <mxGeometry x="0.1355" y="3" relative="1" as="geometry">
            <mxPoint as="offset" />
          </mxGeometry>
        </mxCell>
        <mxCell id="WTU8kCG2yNiOu3vc5kU5-13" value="Renter" style="shape=umlActor;verticalLabelPosition=bottom;verticalAlign=top;html=1;outlineConnect=0;" vertex="1" parent="1">
          <mxGeometry x="280" width="30" height="60" as="geometry" />
        </mxCell>
      </root>
    </mxGraphModel>
  </diagram>
</mxfile>
